<svg width="165" height="21" viewBox="0 0 165 21" fill="none" xmlns="http://www.w3.org/2000/svg">
<path d="M0.919922 5.43359H6.25195V16.0684C6.25195 16.7454 6.15755 17.3444 5.96875 17.8652C5.78646 18.3861 5.51953 18.8223 5.16797 19.1738C4.8099 19.5319 4.3737 19.8021 3.85938 19.9844C3.35156 20.1732 2.77214 20.2676 2.12109 20.2676C1.91927 20.2676 1.72396 20.2643 1.53516 20.2578C1.34635 20.2513 1.16081 20.2415 0.978516 20.2285C0.828776 20.2155 0.679036 20.196 0.529297 20.1699C0.379557 20.1504 0.223307 20.1276 0.0605469 20.1016L0.1875 18.6172C0.298177 18.6367 0.438151 18.653 0.607422 18.666C0.776693 18.6855 0.949219 18.6986 1.125 18.7051C1.29427 18.7181 1.45703 18.7246 1.61328 18.7246C1.77604 18.7311 1.90299 18.7344 1.99414 18.7344C2.33268 18.7344 2.65169 18.6888 2.95117 18.5977C3.25065 18.513 3.51107 18.3665 3.73242 18.1582C3.95378 17.9499 4.1263 17.6732 4.25 17.3281C4.38021 16.9896 4.44531 16.5697 4.44531 16.0684V7.00586H0.919922V5.43359ZM4.19141 2.65039C4.19141 2.35742 4.2793 2.11003 4.45508 1.9082C4.63086 1.69987 4.90104 1.5957 5.26562 1.5957C5.63021 1.5957 5.90365 1.69987 6.08594 1.9082C6.26823 2.11003 6.35938 2.35742 6.35938 2.65039C6.35938 2.94336 6.26823 3.19076 6.08594 3.39258C5.90365 3.58789 5.63021 3.68555 5.26562 3.68555C4.90104 3.68555 4.63086 3.58789 4.45508 3.39258C4.2793 3.19076 4.19141 2.94336 4.19141 2.65039ZM18.6543 16C18.5827 15.8633 18.5241 15.694 18.4785 15.4922C18.4395 15.2839 18.4102 15.069 18.3906 14.8477C18.2083 15.0299 18.0033 15.2025 17.7754 15.3652C17.554 15.528 17.3099 15.6712 17.043 15.7949C16.7695 15.9186 16.4798 16.0163 16.1738 16.0879C15.8678 16.1595 15.5423 16.1953 15.1973 16.1953C14.6374 16.1953 14.1296 16.1139 13.6738 15.9512C13.2246 15.7884 12.8438 15.5671 12.5312 15.2871C12.2122 15.0137 11.9648 14.6882 11.7891 14.3105C11.6198 13.9264 11.5352 13.513 11.5352 13.0703C11.5352 12.4909 11.6491 11.9831 11.877 11.5469C12.1113 11.1107 12.4401 10.7461 12.8633 10.4531C13.2865 10.1667 13.7943 9.95182 14.3867 9.80859C14.9857 9.66536 15.653 9.59375 16.3887 9.59375H18.3613V8.76367C18.3613 8.44466 18.3027 8.1582 18.1855 7.9043C18.0684 7.65039 17.9023 7.43229 17.6875 7.25C17.4727 7.07422 17.209 6.9375 16.8965 6.83984C16.5905 6.74219 16.2454 6.69336 15.8613 6.69336C15.5033 6.69336 15.181 6.73893 14.8945 6.83008C14.6146 6.92122 14.377 7.04167 14.1816 7.19141C13.9863 7.34115 13.8333 7.52018 13.7227 7.72852C13.6185 7.93034 13.5664 8.14193 13.5664 8.36328H11.75C11.7565 7.97917 11.8542 7.60156 12.043 7.23047C12.2383 6.85938 12.5182 6.52409 12.8828 6.22461C13.2409 5.93164 13.6771 5.69401 14.1914 5.51172C14.7122 5.32943 15.3014 5.23828 15.959 5.23828C16.5579 5.23828 17.1146 5.31315 17.6289 5.46289C18.1432 5.60612 18.5892 5.82422 18.9668 6.11719C19.3379 6.41667 19.6309 6.78776 19.8457 7.23047C20.0605 7.67318 20.168 8.19076 20.168 8.7832V13.6953C20.168 14.0469 20.2005 14.4212 20.2656 14.8184C20.3307 15.209 20.4219 15.5508 20.5391 15.8438V16H18.6543ZM15.4609 14.623C15.8125 14.623 16.1413 14.5775 16.4473 14.4863C16.7533 14.3952 17.0332 14.2747 17.2871 14.125C17.5345 13.9753 17.7493 13.806 17.9316 13.6172C18.1139 13.4219 18.2572 13.2201 18.3613 13.0117V10.873H16.6816C16.0566 10.873 15.5098 10.9284 15.041 11.0391C14.5788 11.1432 14.2109 11.306 13.9375 11.5273C13.7422 11.6836 13.5924 11.8691 13.4883 12.084C13.3906 12.2988 13.3418 12.543 13.3418 12.8164C13.3418 13.0768 13.3841 13.3177 13.4688 13.5391C13.5599 13.7604 13.6934 13.9492 13.8691 14.1055C14.0449 14.2682 14.2663 14.3952 14.5332 14.4863C14.8001 14.5775 15.1094 14.623 15.4609 14.623ZM26.8867 11.0684L25.5586 12.3477V16H23.7422V1H25.5586V10.1797L26.7402 8.91016L30.207 5.43359H32.4043L28.127 9.83789L33.0586 16H30.7637L26.8867 11.0684ZM40.4023 16.1953C39.6602 16.1953 38.9766 16.0684 38.3516 15.8145C37.7331 15.5605 37.2025 15.2057 36.7598 14.75C36.3171 14.2943 35.972 13.7539 35.7246 13.1289C35.4772 12.5039 35.3535 11.8236 35.3535 11.0879V10.6777C35.3535 9.82487 35.4902 9.06315 35.7637 8.39258C36.0371 7.71549 36.4017 7.14258 36.8574 6.67383C37.3066 6.21159 37.8177 5.85677 38.3906 5.60938C38.9701 5.36198 39.5625 5.23828 40.168 5.23828C40.9297 5.23828 41.5938 5.37174 42.1602 5.63867C42.7331 5.89909 43.2083 6.26042 43.5859 6.72266C43.9635 7.19141 44.2435 7.74154 44.4258 8.37305C44.6146 9.00456 44.709 9.68815 44.709 10.4238V11.2344H37.1602V11.3027C37.2057 11.8171 37.3066 12.2695 37.4629 12.6602C37.6257 13.0508 37.847 13.3958 38.127 13.6953C38.4134 14.0143 38.7585 14.265 39.1621 14.4473C39.5658 14.6296 40.0117 14.7207 40.5 14.7207C41.1445 14.7207 41.7174 14.5905 42.2188 14.3301C42.7201 14.0697 43.1367 13.7246 43.4688 13.2949L44.5723 14.1543C44.2207 14.6882 43.6934 15.1634 42.9902 15.5801C42.2936 15.9902 41.431 16.1953 40.4023 16.1953ZM40.168 6.72266C39.8034 6.72266 39.4583 6.79102 39.1328 6.92773C38.8073 7.05794 38.5143 7.25 38.2539 7.50391C37.9935 7.76432 37.7721 8.08333 37.5898 8.46094C37.4141 8.83203 37.2904 9.26172 37.2188 9.75H42.9023V9.66211C42.9023 9.33659 42.8405 8.98828 42.7168 8.61719C42.5931 8.23958 42.4206 7.91406 42.1992 7.64062C41.9779 7.36719 41.6979 7.14583 41.3594 6.97656C41.0273 6.80729 40.6302 6.72266 40.168 6.72266ZM54.7676 13.1973C54.7676 12.9824 54.7253 12.7904 54.6406 12.6211C54.556 12.4453 54.4128 12.2858 54.2109 12.1426C54.0091 11.9993 53.7422 11.8691 53.4102 11.752C53.0781 11.6283 52.6647 11.5176 52.1699 11.4199C51.5645 11.2962 51.0111 11.1465 50.5098 10.9707C50.015 10.7949 49.5918 10.5833 49.2402 10.3359C48.8822 10.0951 48.6055 9.81185 48.4102 9.48633C48.2148 9.1543 48.1172 8.77018 48.1172 8.33398C48.1172 7.9043 48.2181 7.50391 48.4199 7.13281C48.6217 6.75521 48.9049 6.42643 49.2695 6.14648C49.6341 5.86654 50.0671 5.64518 50.5684 5.48242C51.0762 5.31966 51.6328 5.23828 52.2383 5.23828C52.8893 5.23828 53.4753 5.32292 53.9961 5.49219C54.5169 5.66146 54.9596 5.89583 55.3242 6.19531C55.6888 6.49479 55.9688 6.84635 56.1641 7.25C56.3659 7.64714 56.4668 8.07682 56.4668 8.53906H54.6602C54.6602 8.3112 54.6016 8.08984 54.4844 7.875C54.3672 7.65365 54.2044 7.45833 53.9961 7.28906C53.7878 7.11979 53.5339 6.98307 53.2344 6.87891C52.9414 6.77474 52.6094 6.72266 52.2383 6.72266C51.8542 6.72266 51.5156 6.76497 51.2227 6.84961C50.9362 6.93424 50.6986 7.04818 50.5098 7.19141C50.3145 7.33464 50.168 7.50065 50.0703 7.68945C49.9727 7.87826 49.9238 8.07357 49.9238 8.27539C49.9238 8.48372 49.9629 8.66927 50.041 8.83203C50.1191 8.99479 50.2559 9.14128 50.4512 9.27148C50.64 9.40169 50.8939 9.51888 51.2129 9.62305C51.5384 9.72721 51.9486 9.82812 52.4434 9.92578C53.0944 10.0625 53.6771 10.222 54.1914 10.4043C54.7057 10.5801 55.1387 10.7917 55.4902 11.0391C55.8418 11.293 56.1087 11.5859 56.291 11.918C56.4798 12.25 56.5742 12.6341 56.5742 13.0703C56.5742 13.5391 56.4668 13.9655 56.252 14.3496C56.0436 14.7337 55.7507 15.0625 55.373 15.3359C54.9954 15.6094 54.543 15.821 54.0156 15.9707C53.4883 16.1204 52.9121 16.1953 52.2871 16.1953C51.571 16.1953 50.9329 16.1009 50.373 15.9121C49.8132 15.7168 49.3411 15.4596 48.957 15.1406C48.5664 14.8281 48.2669 14.4635 48.0586 14.0469C47.8568 13.6302 47.7559 13.1973 47.7559 12.748H49.5625C49.5885 13.1191 49.6862 13.4316 49.8555 13.6855C50.0312 13.9395 50.2493 14.1445 50.5098 14.3008C50.7637 14.457 51.0469 14.5677 51.3594 14.6328C51.6719 14.6979 51.9811 14.7305 52.2871 14.7305C52.7689 14.7305 53.1888 14.6751 53.5469 14.5645C53.9049 14.4473 54.1849 14.2878 54.3867 14.0859C54.5104 13.9622 54.6048 13.8255 54.6699 13.6758C54.735 13.526 54.7676 13.3665 54.7676 13.1973ZM60.5879 5.43359L60.6367 6.42969C60.8516 6.05859 61.1315 5.76888 61.4766 5.56055C61.8281 5.35221 62.2513 5.24479 62.7461 5.23828C63.026 5.23828 63.2767 5.27083 63.498 5.33594C63.7259 5.39453 63.9245 5.48242 64.0938 5.59961C64.2174 5.69076 64.3281 5.80143 64.4258 5.93164C64.5299 6.06185 64.6178 6.20833 64.6895 6.37109C64.7806 6.22135 64.888 6.08138 65.0117 5.95117C65.1354 5.82096 65.2689 5.70703 65.4121 5.60938C65.5944 5.4987 65.7962 5.41081 66.0176 5.3457C66.2454 5.2806 66.4928 5.24479 66.7598 5.23828C67.1243 5.23828 67.4531 5.29362 67.7461 5.4043C68.0391 5.50846 68.2865 5.66471 68.4883 5.87305C68.7096 6.10742 68.8789 6.41341 68.9961 6.79102C69.1133 7.16211 69.1719 7.60156 69.1719 8.10938V16H67.4531V8.08984C67.4531 7.86849 67.4271 7.67318 67.375 7.50391C67.3229 7.33464 67.248 7.19466 67.1504 7.08398C67.0462 6.97982 66.916 6.90169 66.7598 6.84961C66.61 6.79753 66.4342 6.77148 66.2324 6.77148C66.0176 6.77148 65.832 6.80078 65.6758 6.85938C65.5195 6.91797 65.3893 6.99609 65.2852 7.09375C65.181 7.19792 65.0996 7.31836 65.041 7.45508C64.9824 7.58529 64.9434 7.73177 64.9238 7.89453C64.9238 7.92708 64.9238 7.95964 64.9238 7.99219C64.9238 8.01823 64.9238 8.05078 64.9238 8.08984V16H63.2051V8.08008C63.2051 7.85872 63.179 7.66341 63.127 7.49414C63.0814 7.32487 63.0065 7.1849 62.9023 7.07422C62.8047 6.97005 62.681 6.89518 62.5312 6.84961C62.388 6.79753 62.2188 6.77148 62.0234 6.77148C61.8086 6.77148 61.6198 6.79753 61.457 6.84961C61.3008 6.89518 61.1673 6.96354 61.0566 7.05469C60.972 7.1263 60.8971 7.20768 60.832 7.29883C60.7734 7.38997 60.7246 7.48763 60.6855 7.5918V16H58.9668V5.43359H60.5879ZM72.0527 5.43359H77.4531V14.4375H80.9004V16H72.0527V14.4375H75.6465V7.00586H72.0527V5.43359ZM75.4121 2.66016C75.4121 2.50391 75.4349 2.35742 75.4805 2.2207C75.5326 2.08398 75.6107 1.9668 75.7148 1.86914C75.7995 1.78451 75.9069 1.7194 76.0371 1.67383C76.1738 1.62174 76.3268 1.5957 76.4961 1.5957C76.6654 1.5957 76.8151 1.62174 76.9453 1.67383C77.0755 1.7194 77.1829 1.78451 77.2676 1.86914C77.3717 1.96029 77.4499 2.07422 77.502 2.21094C77.554 2.34766 77.5801 2.4974 77.5801 2.66016C77.5801 2.95312 77.4889 3.19727 77.3066 3.39258C77.1243 3.58789 76.8542 3.68555 76.4961 3.68555C76.1315 3.68555 75.8581 3.58789 75.6758 3.39258C75.5 3.19727 75.4121 2.95312 75.4121 2.66016ZM88.0586 2.875V5.43359H92.082V6.83008H88.0586V12.5723C88.0586 12.9824 88.1107 13.321 88.2148 13.5879C88.319 13.8548 88.4622 14.0664 88.6445 14.2227C88.8268 14.3854 89.0352 14.4993 89.2695 14.5645C89.5104 14.6296 89.7643 14.6621 90.0312 14.6621C90.2266 14.6621 90.4284 14.6523 90.6367 14.6328C90.8451 14.6068 91.0501 14.5775 91.252 14.5449C91.4473 14.5124 91.6296 14.4798 91.7988 14.4473C91.9746 14.4082 92.1178 14.3757 92.2285 14.3496L92.4824 15.6289C92.3327 15.7201 92.1504 15.8014 91.9355 15.873C91.7207 15.9382 91.4863 15.9935 91.2324 16.0391C90.9785 16.0911 90.7083 16.1302 90.4219 16.1562C90.1419 16.1823 89.862 16.1953 89.582 16.1953C89.1133 16.1953 88.6738 16.1302 88.2637 16C87.86 15.8633 87.5085 15.6484 87.209 15.3555C86.9095 15.069 86.6719 14.6979 86.4961 14.2422C86.3268 13.7799 86.2422 13.2233 86.2422 12.5723V6.83008H83.4688V5.43359H86.2422V2.875H88.0586ZM97.5996 7.00586C97.7428 6.79102 97.9023 6.5957 98.0781 6.41992C98.2539 6.23763 98.4395 6.07812 98.6348 5.94141C98.9473 5.71354 99.2891 5.54102 99.6602 5.42383C100.038 5.30664 100.438 5.24479 100.861 5.23828C101.415 5.23828 101.916 5.31966 102.365 5.48242C102.821 5.63867 103.208 5.88607 103.527 6.22461C103.846 6.56315 104.09 6.99284 104.26 7.51367C104.436 8.02799 104.523 8.63997 104.523 9.34961V16H102.717V9.33008C102.717 8.91341 102.668 8.54883 102.57 8.23633C102.473 7.91732 102.329 7.65365 102.141 7.44531C101.939 7.21745 101.685 7.04818 101.379 6.9375C101.073 6.82031 100.721 6.76497 100.324 6.77148C99.9987 6.77148 99.6895 6.81706 99.3965 6.9082C99.1035 6.99935 98.8333 7.12956 98.5859 7.29883C98.3906 7.42904 98.2083 7.58203 98.0391 7.75781C97.8763 7.92708 97.7298 8.11589 97.5996 8.32422V16H95.793V1H97.5996V7.00586ZM110.949 14.8281C110.949 14.444 111.066 14.1152 111.301 13.8418C111.535 13.5684 111.89 13.4316 112.365 13.4316C112.834 13.4316 113.189 13.5684 113.43 13.8418C113.677 14.1087 113.801 14.4375 113.801 14.8281C113.801 15.2122 113.677 15.5345 113.43 15.7949C113.182 16.0553 112.827 16.1855 112.365 16.1855C111.896 16.1855 111.542 16.0553 111.301 15.7949C111.066 15.528 110.949 15.2057 110.949 14.8281ZM120.1 5.43359H125.5V14.4375H128.947V16H120.1V14.4375H123.693V7.00586H120.1V5.43359ZM123.459 2.66016C123.459 2.50391 123.482 2.35742 123.527 2.2207C123.579 2.08398 123.658 1.9668 123.762 1.86914C123.846 1.78451 123.954 1.7194 124.084 1.67383C124.221 1.62174 124.374 1.5957 124.543 1.5957C124.712 1.5957 124.862 1.62174 124.992 1.67383C125.122 1.7194 125.23 1.78451 125.314 1.86914C125.419 1.96029 125.497 2.07422 125.549 2.21094C125.601 2.34766 125.627 2.4974 125.627 2.66016C125.627 2.95312 125.536 3.19727 125.354 3.39258C125.171 3.58789 124.901 3.68555 124.543 3.68555C124.178 3.68555 123.905 3.58789 123.723 3.39258C123.547 3.19727 123.459 2.95312 123.459 2.66016ZM131.828 16V5.43359H133.449L133.576 6.99609C133.732 6.77474 133.902 6.57292 134.084 6.39062C134.273 6.20182 134.471 6.03906 134.68 5.90234C134.992 5.69401 135.331 5.53451 135.695 5.42383C136.066 5.30664 136.457 5.24479 136.867 5.23828C137.421 5.23828 137.922 5.31641 138.371 5.47266C138.827 5.62891 139.214 5.87305 139.533 6.20508C139.852 6.53711 140.096 6.96029 140.266 7.47461C140.441 7.98242 140.529 8.58789 140.529 9.29102V16H138.723V9.33008C138.723 8.86133 138.671 8.46419 138.566 8.13867C138.462 7.81315 138.309 7.54948 138.107 7.34766C137.899 7.14583 137.645 6.99935 137.346 6.9082C137.053 6.81706 136.714 6.77148 136.33 6.77148C135.998 6.77148 135.689 6.82031 135.402 6.91797C135.116 7.00911 134.852 7.13607 134.611 7.29883C134.416 7.44206 134.234 7.60807 134.064 7.79688C133.902 7.98568 133.758 8.19401 133.635 8.42188V16H131.828ZM146.535 16V6.83008H143.625V5.43359H146.535V4.69141C146.535 4.01432 146.633 3.42188 146.828 2.91406C147.03 2.39974 147.313 1.97005 147.678 1.625C148.036 1.27995 148.469 1.01953 148.977 0.84375C149.484 0.667969 150.051 0.580078 150.676 0.580078C150.936 0.580078 151.193 0.596354 151.447 0.628906C151.701 0.654948 151.952 0.690755 152.199 0.736328C152.362 0.76888 152.525 0.804688 152.688 0.84375C152.85 0.876302 153.016 0.915365 153.186 0.960938L152.971 2.45508C152.704 2.36393 152.391 2.28581 152.033 2.2207C151.682 2.14909 151.304 2.11328 150.9 2.11328C150.49 2.11328 150.126 2.16536 149.807 2.26953C149.494 2.36719 149.234 2.51693 149.025 2.71875C148.804 2.92708 148.635 3.19727 148.518 3.5293C148.407 3.86133 148.352 4.2487 148.352 4.69141V5.43359H152.424V6.83008H148.352V16H146.535ZM155.344 10.6191C155.344 9.85742 155.454 9.15104 155.676 8.5C155.897 7.84245 156.216 7.27279 156.633 6.79102C157.043 6.30924 157.544 5.93164 158.137 5.6582C158.729 5.37826 159.396 5.23828 160.139 5.23828C160.887 5.23828 161.558 5.37826 162.15 5.6582C162.749 5.93164 163.257 6.30924 163.674 6.79102C164.084 7.27279 164.4 7.84245 164.621 8.5C164.842 9.15104 164.953 9.85742 164.953 10.6191V10.834C164.953 11.5957 164.842 12.3021 164.621 12.9531C164.4 13.6042 164.084 14.1706 163.674 14.6523C163.257 15.1341 162.753 15.5117 162.16 15.7852C161.568 16.0586 160.9 16.1953 160.158 16.1953C159.41 16.1953 158.736 16.0586 158.137 15.7852C157.544 15.5117 157.043 15.1341 156.633 14.6523C156.216 14.1706 155.897 13.6042 155.676 12.9531C155.454 12.3021 155.344 11.5957 155.344 10.834V10.6191ZM157.15 10.834C157.15 11.3548 157.212 11.8529 157.336 12.3281C157.46 12.7969 157.648 13.2103 157.902 13.5684C158.15 13.9264 158.462 14.2096 158.84 14.418C159.217 14.6263 159.657 14.7305 160.158 14.7305C160.653 14.7305 161.086 14.6263 161.457 14.418C161.835 14.2096 162.15 13.9264 162.404 13.5684C162.652 13.2103 162.837 12.7969 162.961 12.3281C163.085 11.8529 163.146 11.3548 163.146 10.834V10.6191C163.146 10.1048 163.081 9.61328 162.951 9.14453C162.827 8.66927 162.642 8.2526 162.395 7.89453C162.141 7.53646 161.825 7.25326 161.447 7.04492C161.076 6.83008 160.64 6.72266 160.139 6.72266C159.637 6.72266 159.201 6.83008 158.83 7.04492C158.459 7.25326 158.15 7.53646 157.902 7.89453C157.648 8.2526 157.46 8.66927 157.336 9.14453C157.212 9.61328 157.15 10.1048 157.15 10.6191V10.834Z" fill="#66FF66"/>
</svg>
